<svg xmlns="http://www.w3.org/2000/svg" width="90.135" height="17.91" viewBox="0 0 90.135 17.91"><g transform="translate(-42.88 -31.94)"><g transform="translate(42.88 37.678)"><g transform="translate(0 0)"><path d="M45.885,138.232a5.557,5.557,0,0,1-2.2-2.145,6.679,6.679,0,0,1,0-6.344,5.618,5.618,0,0,1,2.2-2.154,6.8,6.8,0,0,1,6.277,0,5.622,5.622,0,0,1,2.2,2.154,6.679,6.679,0,0,1,0,6.344,5.553,5.553,0,0,1-2.2,2.145,6.863,6.863,0,0,1-6.277,0Zm5.384-1.335a4.083,4.083,0,0,0,1.594-1.586,5.2,5.2,0,0,0,.008-4.775,4.036,4.036,0,0,0-1.578-1.586,4.513,4.513,0,0,0-2.237-.559,4.647,4.647,0,0,0-2.262.551,4.064,4.064,0,0,0-1.6,1.586,5.153,5.153,0,0,0-.008,4.783,4.076,4.076,0,0,0,1.594,1.586,4.789,4.789,0,0,0,4.491,0Z" transform="translate(-42.88 -126.82)" fill="#ffffff"/><path d="M304,130.97h4.491a4.409,4.409,0,0,1,2.98.943,3.348,3.348,0,0,1,1.094,2.679,3.3,3.3,0,0,1-1.085,2.679,4.51,4.51,0,0,1-2.988.91H305.7v4.457H304V130.97Zm4.307,5.793a3.154,3.154,0,0,0,1.853-.484,1.924,1.924,0,0,0,.685-1.686,1.947,1.947,0,0,0-.685-1.695,3.114,3.114,0,0,0-1.853-.492h-2.6v4.358Z" transform="translate(-288.207 -130.719)" fill="#ffffff"/><path d="M483.743,132.406H480.12V130.97h8.965v1.436h-3.623V142.64h-1.719V132.406Z" transform="translate(-453.675 -130.719)" fill="#ffffff"/><path d="M680.8,130.97h1.719v11.67H680.8Z" transform="translate(-642.218 -130.719)" fill="#ffffff"/><path d="M770.2,138.232a5.556,5.556,0,0,1-2.2-2.145,6.68,6.68,0,0,1,0-6.344,5.618,5.618,0,0,1,2.2-2.154,6.8,6.8,0,0,1,6.277,0,5.622,5.622,0,0,1,2.2,2.154,6.679,6.679,0,0,1,0,6.344,5.552,5.552,0,0,1-2.2,2.145,6.863,6.863,0,0,1-6.277,0Zm5.385-1.335a4.083,4.083,0,0,0,1.594-1.586,5.2,5.2,0,0,0,.009-4.775,4.039,4.039,0,0,0-1.577-1.586,4.513,4.513,0,0,0-2.237-.559,4.647,4.647,0,0,0-2.262.551,4.064,4.064,0,0,0-1.6,1.586,5.153,5.153,0,0,0-.009,4.783,4.076,4.076,0,0,0,1.594,1.586,4.788,4.788,0,0,0,4.491,0Z" transform="translate(-723.383 -126.82)" fill="#ffffff"/><path d="M1028.33,130.97h1.62l5.943,8.8v-8.8h1.72v11.67h-1.636l-5.943-8.8v8.8h-1.7Z" transform="translate(-968.729 -130.719)" fill="#ffffff"/></g></g><path d="M1266.784,31.94a8.873,8.873,0,0,0-7.7,4.488h2.543a6.778,6.778,0,1,1,2.7,10.7l-.835,1.923a8.872,8.872,0,1,0,3.3-17.106Z" transform="translate(-1142.643 0)" fill="#ffffff"/><path d="M1244.448,144.632l4.2-9.665h-5.577a8.683,8.683,0,0,1,.394-1.827h7.969l-4.993,11.492Z" transform="translate(-1127.602 -95.079)" fill="#ffffff"/></g></svg> 